# xmcd
#
# Track frame offsets: 
#        182
#        10670
#        32335
#        52315
#        61222
#        74130
#        84125
#        94797
#        108230
#        135105
#        154880
#        166027
#        184087
#        195027
#        218522
#        230292
#        241595
#        250605
#        261927
#        285255
#        301165
#        318182
#
# Disc length: 4442 seconds
#
# Revision: 2
# Processed by: cddbd v1.5.2PL0 Copyright (c) Steve Scherf et al.
# Submitted via: ExactAudioCopy v0.95a5
#
DISCID=05115816
DTITLE=Various Artist - Organ Boogie Woogie and Boogie Woogie Piano
DYEAR=1989
DGENRE=Jazz
TTITLE0=Sir Charles Thompson - Mister Boogie
TTITLE1=Bill Doggett - Honky Tonk (pt I and II)
TTITLE2=Wild Bill Davis - Night Train
TTITLE3=Sir Charles Thompson - Heartaches
TTITLE4=Marlowe Morris - Up Down and Around
TTITLE5=Bill Doggett - Forest Green
TTITLE6=Bill Doggett - Oops
TTITLE7=Sir Charles Thompson - Boogie Woogie
TTITLE8=Wild Bill Davis - Things Ain't What They Used To Be
TTITLE9=Bill Doggett - Mommy (pt I and II)
TTITLE10=Dick Hyman - The Huckle Buck
TTITLE11=Memphis Slim - Panic Street
TTITLE12=Memphis Slim - The Hustler
TTITLE13=Memphis Slim - Carried Away
TTITLE14=Memphis Slim - Bluesnick
TTITLE15=Memphis Slim - Back Home
TTITLE16=Memphis Slim - Olympia Boogie
TTITLE17=Memphis Slim - Sonophone Boogie
TTITLE18=Memphis Slim - Blue Slim
TTITLE19=Memphis Slim - Musing
TTITLE20=Memphis Slim - West Side Trot
TTITLE21=Memphis Slim - Hotfan's Delight
EXTD=This "I Love Jazz CD-series" CD is a compilation of 2 albums\n- O
EXTD=rgan Boogie Woogie/Various artists\n- Boogie Woogie Piano/Memphis
EXTD=Slim
EXTT0=
EXTT1=
EXTT2=
EXTT3=
EXTT4=
EXTT5=
EXTT6=
EXTT7=
EXTT8=
EXTT9=
EXTT10=
EXTT11=
EXTT12=
EXTT13=
EXTT14=
EXTT15=
EXTT16=
EXTT17=
EXTT18=
EXTT19=
EXTT20=
EXTT21=
PLAYORDER=
